<?xml version="1.0" encoding="UTF-8"?>
<svg version="1.1" xmlns="http://www.w3.org/2000/svg" width="80" height="81">
<path d="M0 0 C26.4 0 52.8 0 80 0 C80 26.73 80 53.46 80 81 C53.6 81 27.2 81 0 81 C0 54.27 0 27.54 0 0 Z " fill="#F9B639" transform="translate(0,0)"/>
<path d="M0 0 C26.4 0 52.8 0 80 0 C80 3.96 80 7.92 80 12 C78.9171875 10.7934375 78.9171875 10.7934375 77.8125 9.5625 C73.55606142 5.68441151 69.61225115 5.8752992 64.01977539 5.85473633 C62.24752342 5.84516655 62.24752342 5.84516655 60.43946838 5.83540344 C59.17167038 5.83429062 57.90387238 5.8331778 56.59765625 5.83203125 C54.63196938 5.82703865 54.63196938 5.82703865 52.62657166 5.82194519 C49.85691504 5.81597042 47.08728956 5.81410363 44.31762695 5.81469727 C40.77927297 5.8147989 37.2411196 5.80113822 33.70281315 5.78392506 C30.31359128 5.77009513 26.92440596 5.77071549 23.53515625 5.76953125 C22.26938248 5.76234573 21.0036087 5.75516022 19.69947815 5.74775696 C18.51482468 5.75083359 17.3301712 5.75391022 16.10961914 5.75708008 C15.07213028 5.75565506 14.03464142 5.75423004 12.9657135 5.75276184 C6.89960084 6.2584663 4.37366145 7.62633855 0 12 C0 8.04 0 4.08 0 0 Z " fill="#FEDF7E" transform="translate(0,0)"/>
<path d="M0 0 C1 1 1 1 1.0625 3.5625 C1.041875 4.366875 1.02125 5.17125 1 6 C-0.65 6.33 -2.3 6.66 -4 7 C-3.01 8.485 -3.01 8.485 -2 10 C-2 11.32 -2 12.64 -2 14 C-5.63 14 -9.26 14 -13 14 C-13 12.68 -13 11.36 -13 10 C-14.65 10 -16.3 10 -18 10 C-18 8.02 -18 6.04 -18 4 C-16.75108386 3.51801537 -15.50081192 3.03954323 -14.25 2.5625 C-13.55390625 2.29566406 -12.8578125 2.02882812 -12.140625 1.75390625 C-7.97210172 0.28579495 -4.44615867 -0.19760705 0 0 Z " fill="#484E5D" transform="translate(33,31)"/>
<path d="M0 0 C6.90767437 0.36823999 12.6381142 1.23918163 19 4 C19 5.98 19 7.96 19 10 C12.63296252 10.42446917 7.03374925 9.01472942 1 7 C0 6 0 6 -0.0625 2.9375 C-0.041875 1.968125 -0.02125 0.99875 0 0 Z " fill="#454B5D" transform="translate(47,26)"/>
<path d="M0 0 C26.4 0 52.8 0 80 0 C80 2.31 80 4.62 80 7 C79.401875 6.360625 78.80375 5.72125 78.1875 5.0625 C74.57320338 1.65473461 71.3773781 1.8597973 66.60424805 1.80712891 C65.9599585 1.79895142 65.31566895 1.79077393 64.65185547 1.78234863 C62.52181922 1.75755739 60.39184934 1.74099493 58.26171875 1.7265625 C57.53277719 1.72123882 56.80383564 1.71591515 56.05280495 1.71043015 C52.19447507 1.68372586 48.33617725 1.66434229 44.4777832 1.64990234 C41.28934029 1.63656362 38.10153745 1.60870994 34.91333008 1.56787109 C31.05834159 1.5184961 27.20393353 1.49377584 23.34864235 1.48667526 C21.88263421 1.47997277 20.41663852 1.46477652 18.95081139 1.44078445 C9.95135173 0.95150925 9.95135173 0.95150925 2.05395508 4.53271484 C1.3761499 5.34691895 0.69834473 6.16112305 0 7 C0 4.69 0 2.38 0 0 Z " fill="#FFFEFB" transform="translate(0,0)"/>
<path d="M0 0 C2.9375 1.125 2.9375 1.125 5 3 C5.8125 6.1875 5.8125 6.1875 6 9 C4.125 8.6875 4.125 8.6875 2 8 C1.34 7.01 0.68 6.02 0 5 C-3.45769191 4.41657647 -3.45769191 4.41657647 -7 5 C-8.77409808 6.92022703 -8.77409808 6.92022703 -10 9 C-10.99 9 -11.98 9 -13 9 C-12.52238806 3.62686567 -12.52238806 3.62686567 -10.4375 1.125 C-6.95349388 -0.48300282 -3.73036487 -0.53290927 0 0 Z " fill="#FAF8F5" transform="translate(59,35)"/>
<path d="M0 0 C3.5625 0.1875 3.5625 0.1875 5.5625 2.1875 C5.5625 3.5075 5.5625 4.8275 5.5625 6.1875 C1.9325 6.1875 -1.6975 6.1875 -5.4375 6.1875 C-4.24632353 0.23161765 -4.24632353 0.23161765 0 0 Z " fill="#52545C" transform="translate(55.4375,38.8125)"/>
<path d="M0 0 C0.99 0 1.98 0 3 0 C2.625 2.4375 2.625 2.4375 2 5 C-0.52475462 6.26237731 -2.31200466 6.09856404 -5.125 6.0625 C-6.03507812 6.05347656 -6.94515625 6.04445313 -7.8828125 6.03515625 C-8.58148438 6.02355469 -9.28015625 6.01195312 -10 6 C-10 5.01 -10 4.02 -10 3 C-8.72125 2.87625 -7.4425 2.7525 -6.125 2.625 C-2.65209064 2.30957601 -2.65209064 2.30957601 0 0 Z " fill="#4B4E59" transform="translate(48,51)"/>
<path d="M0 0 C1.65 0 3.3 0 5 0 C5.33 1.98 5.66 3.96 6 6 C4.125 5.8125 4.125 5.8125 2 5 C0.75 2.4375 0.75 2.4375 0 0 Z " fill="#F8F7F4" transform="translate(29,38)"/>
<path d="M0 0 C0.33 0 0.66 0 1 0 C1 2.31 1 4.62 1 7 C-0.98 7 -2.96 7 -5 7 C-4.0409375 6.1028125 -4.0409375 6.1028125 -3.0625 5.1875 C-0.79689611 3.09189663 -0.79689611 3.09189663 0 0 Z " fill="#FEF3E2" transform="translate(79,74)"/>
<path d="M0 0 C3.875 4.75 3.875 4.75 5 7 C3.35 7 1.7 7 0 7 C0 4.69 0 2.38 0 0 Z " fill="#FEF5E6" transform="translate(0,74)"/>
</svg>
