<?xml version="1.0" encoding="UTF-8"?>
<svg version="1.1" xmlns="http://www.w3.org/2000/svg" width="96" height="128">
<path d="M0 0 C4.21779303 1.50635465 5.7747674 4.24012422 8 8 C10.38376861 15.15130582 9.73735923 22.19757415 6.5 28.9375 C6.0359375 29.79214844 5.571875 30.64679687 5.09375 31.52734375 C3.88576367 34.25825571 3.67973356 36.04643168 4 39 C4.474375 39.45375 4.94875 39.9075 5.4375 40.375 C7.95412508 42.99229008 7.87814913 45.46632488 8 49 C6.875 51.8125 6.875 51.8125 5 54 C3.35008418 54.70710678 1.68437744 55.37943989 0 56 C-0.33 56.99 -0.66 57.98 -1 59 C-0.34 59 0.32 59 1 59 C1.639375 59.804375 2.27875 60.60875 2.9375 61.4375 C4.81035932 64.23720732 4.81035932 64.23720732 8 65 C9.82891234 67.85488756 10.46227251 70.69118291 11.0625 74 C11.71508478 77.55508062 11.71508478 77.55508062 12.546875 81.0703125 C13.85808902 86.65427566 13.18755568 91.77417255 11 97 C10.34 97.99 9.68 98.98 9 100 C6.1796875 100.29296875 6.1796875 100.29296875 2.875 100.1875 C1.23144531 100.14689453 1.23144531 100.14689453 -0.4453125 100.10546875 C-1.28835937 100.07066406 -2.13140625 100.03585938 -3 100 C-5.62432894 94.85631528 -6.56309176 91.80576938 -5 86 C-4.46375 85.484375 -3.9275 84.96875 -3.375 84.4375 C-2.92125 83.963125 -2.4675 83.48875 -2 83 C-2.23283149 79.85078091 -2.23283149 79.85078091 -3 77 C-3.99 76.67 -4.98 76.34 -6 76 C-6.11627503 79.58305992 -6.1872736 83.16563417 -6.25 86.75 C-6.28351562 87.76578125 -6.31703125 88.7815625 -6.3515625 89.828125 C-6.62068852 95.59567069 -6.62068852 95.59567069 -3.984375 100.453125 C-3.32953125 100.96359375 -2.6746875 101.4740625 -2 102 C-2 103.32 -2 104.64 -2 106 C-7.94 106 -13.88 106 -20 106 C-20 100.06 -20 94.12 -20 88 C-20.66 88 -21.32 88 -22 88 C-22 93.94 -22 99.88 -22 106 C-27.94 106 -33.88 106 -40 106 C-39 101 -39 101 -37.4375 99.5 C-35.71343023 98.02124974 -35.71343023 98.02124974 -35.8125 95.3125 C-35.874375 94.549375 -35.93625 93.78625 -36 93 C-36.99 95.31 -37.98 97.62 -39 100 C-40.93627769 100.10807131 -42.87427756 100.1856225 -44.8125 100.25 C-45.89144531 100.29640625 -46.97039063 100.3428125 -48.08203125 100.390625 C-51 100 -51 100 -52.84375 98.125 C-56.39632355 91.59594591 -55.46237699 84.19839561 -53.5625 77.3125 C-53.29566406 76.42175781 -53.02882813 75.53101562 -52.75390625 74.61328125 C-51.96043486 72.0028197 -51.96043486 72.0028197 -51.46484375 69.29296875 C-51 67 -51 67 -50 65 C-49.195625 64.525625 -48.39125 64.05125 -47.5625 63.5625 C-44.7644028 62.10335955 -44.7644028 62.10335955 -43 59 C-41.68 59 -40.36 59 -39 59 C-39 58.01 -39 57.02 -39 56 C-40.64333504 54.96210419 -42.31243867 53.96432076 -44 53 C-46.47342266 49.28986601 -46.38503486 47.38939738 -46 43 C-44.625 40.5625 -44.625 40.5625 -43 39 C-42.34 39 -41.68 39 -41 39 C-42.50844638 33.11477359 -43.83696843 28.59369001 -48 24 C-48 23.34 -48 22.68 -48 22 C-45.76953125 20.34375 -45.76953125 20.34375 -42.8125 18.5 C-41.36810547 17.58734375 -41.36810547 17.58734375 -39.89453125 16.65625 C-34.43742598 13.53369584 -30.27128567 12.70257894 -24 12.8125 C-22.95199219 12.8134668 -22.95199219 12.8134668 -21.8828125 12.81445312 C-18.13756 12.84625244 -14.64105933 13.1110695 -11 14 C-9.53998252 12.23055495 -8.08204407 10.45939429 -6.625 8.6875 C-5.81289063 7.70136719 -5.00078125 6.71523438 -4.1640625 5.69921875 C-1.94395043 3.01091621 -1.94395043 3.01091621 0 0 Z M-39 76 C-41.28138945 78.75698184 -41.28138945 78.75698184 -40.8125 81.5625 C-40.16627558 84.33255117 -40.16627558 84.33255117 -37 86 C-37 82.7 -37 79.4 -37 76 C-37.66 76 -38.32 76 -39 76 Z M-37 86 C-36 88 -36 88 -36 88 Z " fill="#258E54" transform="translate(69,22)"/>
<path d="M0 0 C4.21779303 1.50635465 5.7747674 4.24012422 8 8 C10.30708312 14.92124936 9.87231016 21.93332877 6.625 28.4375 C6.16867188 29.32179688 5.71234375 30.20609375 5.2421875 31.1171875 C3.39195549 35.41112216 2.90824041 39.73169813 2.359375 44.34765625 C2 47 2 47 1 49 C-0.32 49 -1.64 49 -3 49 C-3.11269443 42.8894576 -2.89604368 37.04829486 -2 31 C-6.70030718 30.72189947 -6.70030718 30.72189947 -11.13671875 31.99609375 C-15.29799191 33.45509403 -19.25058044 33.25046513 -23.625 33.1875 C-24.91277344 33.1865332 -24.91277344 33.1865332 -26.2265625 33.18554688 C-29.80078129 33.16041565 -32.580477 33.139841 -36 32 C-35.835 33.134375 -35.67 34.26875 -35.5 35.4375 C-34.92423916 39.97060294 -34.90494734 44.43747238 -35 49 C-36.9375 49.5625 -36.9375 49.5625 -39 50 C-40.81490455 48.18509545 -40.59918596 45.32987379 -40.9375 42.875 C-42.07527988 35.28426417 -42.88103596 29.97212471 -48 24 C-48 23.34 -48 22.68 -48 22 C-45.76953125 20.34375 -45.76953125 20.34375 -42.8125 18.5 C-41.84957031 17.8915625 -40.88664062 17.283125 -39.89453125 16.65625 C-34.43742598 13.53369584 -30.27128567 12.70257894 -24 12.8125 C-23.30132812 12.81314453 -22.60265625 12.81378906 -21.8828125 12.81445312 C-18.13756 12.84625244 -14.64105933 13.1110695 -11 14 C-9.53998252 12.23055495 -8.08204407 10.45939429 -6.625 8.6875 C-5.81289063 7.70136719 -5.00078125 6.71523438 -4.1640625 5.69921875 C-1.94395043 3.01091621 -1.94395043 3.01091621 0 0 Z " fill="#BB7757" transform="translate(69,22)"/>
<path d="M0 0 C-0.33 5.94 -0.66 11.88 -1 18 C0.32 18 1.64 18 3 18 C3.33 14.7 3.66 11.4 4 8 C8 10 8 10 9.3125 11.6875 C10.32922829 15.10740423 9.87281149 17.57109774 9 21 C6.70678303 23.29321697 5.09213585 23.96928805 2 25 C1.484375 25.639375 0.96875 26.27875 0.4375 26.9375 C-2.76201183 29.64477924 -5.54056409 29.83751764 -9.60546875 30.4921875 C-12.1783298 30.89818781 -12.1783298 30.89818781 -14.75 32.6875 C-17 34 -17 34 -20 33.875 C-23 33 -23 33 -25.4375 31.5 C-28.60459877 29.64608853 -31.37912238 29.354988 -35 29 C-35.33 27.35 -35.66 25.7 -36 24 C-36.763125 23.9175 -37.52625 23.835 -38.3125 23.75 C-41 23 -41 23 -42.8125 21.375 C-44.46999413 18.06001173 -44.39203556 15.65899856 -44 12 C-42.6875 9.5625 -42.6875 9.5625 -41 8 C-40.01 8 -39.02 8 -38 8 C-37.67 11.3 -37.34 14.6 -37 18 C-36.01 18 -35.02 18 -34 18 C-34 12.39 -34 6.78 -34 1 C-32.46988281 1.02320313 -30.93976562 1.04640625 -29.36328125 1.0703125 C-27.34635905 1.08907457 -25.32943157 1.1072743 -23.3125 1.125 C-22.30509766 1.14175781 -21.29769531 1.15851562 -20.25976562 1.17578125 C-18.79506836 1.18544922 -18.79506836 1.18544922 -17.30078125 1.1953125 C-16.40528564 1.20578613 -15.50979004 1.21625977 -14.5871582 1.22705078 C-11.95922445 1.13904973 -11.95922445 1.13904973 -9.60620117 -0.07470703 C-7 -1 -7 -1 0 0 Z " fill="#FAD3AF" transform="translate(67,53)"/>
<path d="M0 0 C10.23 0 20.46 0 31 0 C30.75 9.75 30.75 9.75 30.63964844 12.80371094 C30.44739677 18.03571145 30.44739677 18.03571145 33.015625 22.390625 C33.67046875 22.92171875 34.3253125 23.4528125 35 24 C35 25.32 35 26.64 35 28 C29.06 28 23.12 28 17 28 C17 22.06 17 16.12 17 10 C16.34 10 15.68 10 15 10 C15 15.94 15 21.88 15 28 C9.06 28 3.12 28 -3 28 C-2 23 -2 23 -0.453125 21.50390625 C1.23467797 20.05381531 1.23467797 20.05381531 1.328125 17.58984375 C1.28945313 16.27693359 1.28945313 16.27693359 1.25 14.9375 C1.23453125 14.05964844 1.2190625 13.18179688 1.203125 12.27734375 C1.13730791 9.96962973 1.13730791 9.96962973 0 8 C0 5.36 0 2.72 0 0 Z " fill="#E59B5E" transform="translate(32,100)"/>
<path d="M0 0 C5.94 0.33 11.88 0.66 18 1 C18 1.33 18 1.66 18 2 C16.35 2 14.7 2 13 2 C12.979375 2.7425 12.95875 3.485 12.9375 4.25 C11.85412074 7.42791249 11.25525588 7.72751232 8.4375 9.3125 C7.303125 9.869375 6.16875 10.42625 5 11 C5.33 13.31 5.66 15.62 6 18 C10.29888613 16.48134786 10.29888613 16.48134786 14 14 C16.69082872 14.17635452 19.32851446 14.61835921 22 15 C22.33 13.35 22.66 11.7 23 10 C24.32 10.33 25.64 10.66 27 11 C26.8125 13.375 26.8125 13.375 26 16 C23.5625 17.1875 23.5625 17.1875 21 18 C20.34 18.66 19.68 19.32 19 20 C16.31160615 20.26991906 13.70858064 20.08737357 11 20 C11 20.99 11 21.98 11 23 C13.97 23 16.94 23 20 23 C20 22.01 20 21.02 20 20 C21.32 20.33 22.64 20.66 24 21 C21.25 25.875 21.25 25.875 19 27 C20.65 27.33 22.3 27.66 24 28 C20.42758099 31.25720557 17.91308447 33 13 33 C11.24525551 32.04286664 9.49043835 31.07835295 7.8125 29.9921875 C4.93551071 28.41728388 2.24279723 28.26471814 -1 28 C-1.33 26.35 -1.66 24.7 -2 23 C-2.763125 22.9175 -3.52625 22.835 -4.3125 22.75 C-7 22 -7 22 -8.8125 20.375 C-10.46999413 17.06001173 -10.39203556 14.65899856 -10 11 C-8.6875 8.5625 -8.6875 8.5625 -7 7 C-6.01 7 -5.02 7 -4 7 C-3.67 10.3 -3.34 13.6 -3 17 C-2.01 17 -1.02 17 0 17 C0 11.39 0 5.78 0 0 Z " fill="#F6CFAA" transform="translate(33,54)"/>
<path d="M0 0 C5.9761194 17.50149254 5.9761194 17.50149254 2 27 C1.34 27.99 0.68 28.98 0 30 C-2.8203125 30.29296875 -2.8203125 30.29296875 -6.125 30.1875 C-7.22070312 30.16042969 -8.31640625 30.13335937 -9.4453125 30.10546875 C-10.70988281 30.05326172 -10.70988281 30.05326172 -12 30 C-14.62432894 24.85631528 -15.56309176 21.80576938 -14 16 C-13.46375 15.525625 -12.9275 15.05125 -12.375 14.5625 C-10.78007477 13.10246138 -10.78007477 13.10246138 -11.02734375 11.046875 C-11.28579296 9.02176613 -11.63769805 7.00912897 -12 5 C-10.56705502 4.15885829 -9.12845595 3.32734313 -7.6875 2.5 C-6.88699219 2.0359375 -6.08648437 1.571875 -5.26171875 1.09375 C-3 0 -3 0 0 0 Z " fill="#E7C3A2" transform="translate(78,92)"/>
<path d="M0 0 C4.7990969 0.78741659 7.87914943 2.49516926 12 5 C11.7525 6.216875 11.505 7.43375 11.25 8.6875 C10.78969312 12.17355742 10.77003419 12.68101517 12.9375 15.6875 C13.618125 16.450625 14.29875 17.21375 15 18 C15.83675229 22.54236959 13.90047341 25.96149399 12 30 C10.06372231 30.10807131 8.12572244 30.1856225 6.1875 30.25 C4.56908203 30.31960937 4.56908203 30.31960937 2.91796875 30.390625 C0 30 0 30 -1.84375 28.125 C-4.97885943 22.36317726 -4.7297384 15.77874187 -3.10546875 9.59375 C-2.11634939 6.3782383 -1.08708617 3.18360949 0 0 Z " fill="#E7C4A2" transform="translate(18,92)"/>
<path d="M0 0 C4.23345479 1.51194814 5.85664857 4.15674915 8 8 C8.75 11.375 8.75 11.375 9 14 C6.093479 12.6970768 4.19164592 11.29126619 2 9 C1.34 8.67 0.68 8.34 0 8 C-0.33 8.99 -0.66 9.98 -1 11 C-2.70703125 12.75390625 -2.70703125 12.75390625 -4.8125 14.5625 C-5.49957031 15.16191406 -6.18664063 15.76132812 -6.89453125 16.37890625 C-8.90311885 17.92540691 -10.62721293 19.10960323 -13 20 C-13.99 19.67 -14.98 19.34 -16 19 C-27.57666077 18.21718289 -36.58299451 20.24441054 -47 25 C-47.33 24.01 -47.66 23.02 -48 22 C-46.27430361 20.86968397 -44.54428261 19.74596893 -42.8125 18.625 C-41.84957031 17.99851562 -40.88664062 17.37203125 -39.89453125 16.7265625 C-34.46499329 13.48789073 -30.29281335 12.70220161 -24 12.8125 C-23.30132812 12.81314453 -22.60265625 12.81378906 -21.8828125 12.81445312 C-18.13756 12.84625244 -14.64105933 13.1110695 -11 14 C-9.53998252 12.23055495 -8.08204407 10.45939429 -6.625 8.6875 C-5.81289063 7.70136719 -5.00078125 6.71523438 -4.1640625 5.69921875 C-1.94395043 3.01091621 -1.94395043 3.01091621 0 0 Z " fill="#D68760" transform="translate(69,22)"/>
<path d="M0 0 C2.76276177 0.52268466 5.3260876 1.10869587 8 2 C11.85845977 2 13.54944466 1.41561245 17 0 C17.99 0 18.98 0 20 0 C21.60355101 3.50776784 22.22036864 6.14354879 22 10 C22.99 10 23.98 10 25 10 C25 10.66 25 11.32 25 12 C14.77 12 4.54 12 -6 12 C-6 11.34 -6 10.68 -6 10 C-4.68 10 -3.36 10 -2 10 C-1.855625 8.906875 -1.71125 7.81375 -1.5625 6.6875 C-1 3 -1 3 0 0 Z " fill="#3FB474" transform="translate(38,88)"/>
<path d="M0 0 C4.29 0 8.58 0 13 0 C13.268125 1.093125 13.53625 2.18625 13.8125 3.3125 C14.94878208 6.84095487 15.50283744 7.61634483 18 10 C18 11.32 18 12.64 18 14 C12.06 14 6.12 14 0 14 C0 9.38 0 4.76 0 0 Z " fill="#A56B50" transform="translate(49,114)"/>
<path d="M0 0 C4.29 0 8.58 0 13 0 C13 4.62 13 9.24 13 14 C7.06 14 1.12 14 -5 14 C-4 9 -4 9 -2.5 7.5625 C-0.35726264 5.62474456 -0.35726264 5.62474456 0 0 Z " fill="#A46B50" transform="translate(34,114)"/>
<path d="M0 0 C0.66 0.99 1.32 1.98 2 3 C5.56769552 3.73606499 5.56769552 3.73606499 9 4 C9 4.33 9 4.66 9 5 C7.35 5.33 5.7 5.66 4 6 C3.01 10.62 2.02 15.24 1 20 C-3.62 17.69 -8.24 15.38 -13 13 C-10.85444019 8.70888038 -9.931555 8.26064412 -6 6 C-5.34 5.01 -4.68 4.02 -4 3 C-2.68 3 -1.36 3 0 3 C0 2.01 0 1.02 0 0 Z " fill="#40B073" transform="translate(30,78)"/>
<path d="M0 0 C1.33333333 1.66666667 2.66666667 3.33333333 4 5 C4.99 5.33 5.98 5.66 7 6 C7.66 7.32 8.32 8.64 9 10 C2.07 13.465 2.07 13.465 -5 17 C-6.24591691 11.86059274 -7.27288504 7.3212582 -7 2 C-8.98 2 -10.96 2 -13 2 C-13 1.67 -13 1.34 -13 1 C-11.39796533 0.63631108 -9.79325797 0.28438048 -8.1875 -0.0625 C-7.29417969 -0.25972656 -6.40085937 -0.45695312 -5.48046875 -0.66015625 C-3 -1 -3 -1 0 0 Z " fill="#40B174" transform="translate(70,81)"/>
<path d="M0 0 C10.23 0 20.46 0 31 0 C31 1.65 31 3.3 31 5 C20.77 5 10.54 5 0 5 C0 3.35 0 1.7 0 0 Z " fill="#BC7857" transform="translate(32,100)"/>
<path d="M0 0 C4 2 4 2 5.3125 3.6875 C6.3274792 7.10152095 5.8856963 9.58374286 5 13 C2.9375 14.4375 2.9375 14.4375 1 15 C1 14.34 1 13.68 1 13 C-0.32 13 -1.64 13 -3 13 C-3 12.34 -3 11.68 -3 11 C-3.66 10.67 -4.32 10.34 -5 10 C-3.68 10 -2.36 10 -1 10 C-0.67 6.7 -0.34 3.4 0 0 Z " fill="#E3C1A1" transform="translate(71,61)"/>
<path d="M0 0 C4.29 0 8.58 0 13 0 C13 2.31 13 4.62 13 7 C12.67 6.34 12.34 5.68 12 5 C8.04 5 4.08 5 0 5 C0 3.35 0 1.7 0 0 Z " fill="#C88349" transform="translate(34,114)"/>
<path d="M0 0 C4.29 0 8.58 0 13 0 C13 1.65 13 3.3 13 5 C8.71 5 4.42 5 0 5 C0 3.35 0 1.7 0 0 Z " fill="#C98348" transform="translate(49,114)"/>
<path d="M0 0 C1.65 0.33 3.3 0.66 5 1 C4.44687265 5.02992782 3.8441938 9.02022924 3 13 C1.35 13 -0.3 13 -2 13 C-1.85769192 11.58297487 -1.71099254 10.1663904 -1.5625 8.75 C-1.48128906 7.96109375 -1.40007813 7.1721875 -1.31640625 6.359375 C-1.02365007 4.17635361 -0.57935581 2.1226818 0 0 Z " fill="#AA7655" transform="translate(33,85)"/>
<path d="M0 0 C4.75481646 0.57634139 7.97048212 2.55068521 12 5 C12 5.66 12 6.32 12 7 C7.38 7 2.76 7 -2 7 C-1.34 4.69 -0.68 2.38 0 0 Z " fill="#EDEBE5" transform="translate(18,92)"/>
<path d="M0 0 C0.66 2.31 1.32 4.62 2 7 C-2.62 7 -7.24 7 -12 7 C-12 6.34 -12 5.68 -12 5 C-10.56705502 4.15885829 -9.12845595 3.32734313 -7.6875 2.5 C-6.88699219 2.0359375 -6.08648437 1.571875 -5.26171875 1.09375 C-3 0 -3 0 0 0 Z " fill="#EDECE6" transform="translate(78,92)"/>
<path d="M0 0 C0.99 0.33 1.98 0.66 3 1 C4.48882438 5.07467725 5.26270217 8.66541415 5 13 C3.35 13 1.7 13 0 13 C-1.13764351 8.73383684 -2 5.43513689 -2 1 C-1.34 0.67 -0.68 0.34 0 0 Z " fill="#A97353" transform="translate(60,85)"/>
<path d="M0 0 C5.94 0 11.88 0 18 0 C11.75 5 11.75 5 7 5 C4.43965264 3.89017201 2.34646916 2.54866965 0 1 C0 0.67 0 0.34 0 0 Z " fill="#B59A78" transform="translate(39,82)"/>
<path d="M0 0 C3.93383553 0.5619765 6.87020891 1.49616713 10 4 C10 5.65 10 7.3 10 9 C6.7 7.35 3.4 5.7 0 4 C0 2.68 0 1.36 0 0 Z " fill="#2AA362" transform="translate(21,89)"/>
<path d="M0 0 C0.515625 0.2475 1.03125 0.495 1.5625 0.75 C0.5625 3.75 0.5625 3.75 -1.72265625 5.13671875 C-2.63917969 5.56597656 -3.55570312 5.99523437 -4.5 6.4375 C-5.41910156 6.87449219 -6.33820313 7.31148438 -7.28515625 7.76171875 C-7.99542969 8.08785156 -8.70570312 8.41398437 -9.4375 8.75 C-9.4375 7.1 -9.4375 5.45 -9.4375 3.75 C-3.0375 -0.31153846 -3.0375 -0.31153846 0 0 Z " fill="#2AA362" transform="translate(74.4375,89.25)"/>
<path d="M0 0 C2.97 0.33 5.94 0.66 9 1 C9 2.32 9 3.64 9 5 C5.7 4.67 2.4 4.34 -1 4 C-0.67 2.68 -0.34 1.36 0 0 Z " fill="#C88765" transform="translate(55,59)"/>
<path d="M0 0 C-0.33 1.32 -0.66 2.64 -1 4 C-3.64 4.33 -6.28 4.66 -9 5 C-9 3.68 -9 2.36 -9 1 C-5.92677456 0.08941469 -3.19902639 -0.08886184 0 0 Z " fill="#C4815F" transform="translate(46,57)"/>
<path d="M0 0 C1.32 0.33 2.64 0.66 4 1 C2.9375 3.5 2.9375 3.5 1 6 C-2.6875 6.3125 -2.6875 6.3125 -6 6 C-6.33 5.34 -6.66 4.68 -7 4 C-5.02 3.67 -3.04 3.34 -1 3 C-0.67 2.01 -0.34 1.02 0 0 Z " fill="#C48160" transform="translate(53,74)"/>
<path d="M0 0 C1.32 0 2.64 0 4 0 C4.33 1.65 4.66 3.3 5 5 C3.02 5.99 3.02 5.99 1 7 C0 6 0 6 -0.0625 2.9375 C-0.041875 1.968125 -0.02125 0.99875 0 0 Z " fill="#C58668" transform="translate(40,64)"/>
<path d="M0 0 C2.0625 0.4375 2.0625 0.4375 4 1 C3.67 2.65 3.34 4.3 3 6 C2.01 6.33 1.02 6.66 0 7 C-0.38133299 5.0085944 -0.71325582 3.00720923 -1 1 C-0.67 0.67 -0.34 0.34 0 0 Z " fill="#C48465" transform="translate(56,64)"/>
<path d="M0 0 C0.33 0 0.66 0 1 0 C1.06058594 0.68707031 1.12117188 1.37414063 1.18359375 2.08203125 C1.26738281 2.98308594 1.35117187 3.88414063 1.4375 4.8125 C1.51871094 5.70582031 1.59992187 6.59914063 1.68359375 7.51953125 C1.93489767 10.12743559 1.93489767 10.12743559 3 13 C1.0625 12.3125 1.0625 12.3125 -1 11 C-2.61027397 6.85929551 -1.58989591 4.02150141 0 0 Z " fill="#D7A882" transform="translate(28,61)"/>
<path d="M0 0 C2.64 0 5.28 0 8 0 C8 0.99 8 1.98 8 3 C5.36 3 2.72 3 0 3 C0 2.01 0 1.02 0 0 Z " fill="#FEFBF7" transform="translate(44,74)"/>
<path d="M0 0 C0.66 0.33 1.32 0.66 2 1 C1.95875 1.94875 1.9175 2.8975 1.875 3.875 C1.65026182 7.10244856 1.65026182 7.10244856 4 9 C2.68 9 1.36 9 0 9 C-2 6 -2 6 -1.6875 3.375 C-1 1 -1 1 0 0 Z " fill="#FDF6EF" transform="translate(39,63)"/>
<path d="M0 0 C1.65 0 3.3 0 5 0 C5.33 1.32 5.66 2.64 6 4 C4.02 4 2.04 4 0 4 C0 2.68 0 1.36 0 0 Z " fill="#E8B78D" transform="translate(47,68)"/>
<path d="M0 0 C0.66 0.33 1.32 0.66 2 1 C2 2.98 2 4.96 2 7 C0.1875 7.625 0.1875 7.625 -2 8 C-2.99 7.34 -3.98 6.68 -5 6 C-3.68 6 -2.36 6 -1 6 C-0.67 4.02 -0.34 2.04 0 0 Z " fill="#D2A17A" transform="translate(71,65)"/>
<path d="M0 0 C0.99 0 1.98 0 3 0 C3.6875 1.75 3.6875 1.75 4 4 C2.5625 6.25 2.5625 6.25 1 8 C0.01 7.67 -0.98 7.34 -2 7 C-1.34 6.34 -0.68 5.68 0 5 C0.16687448 2.41645782 0.16687448 2.41645782 0 0 Z " fill="#FCF6F1" transform="translate(59,64)"/>
<path d="M0 0 C3 1 3 1 4 3 C0.535 4.485 0.535 4.485 -3 6 C-3.33 5.01 -3.66 4.02 -4 3 C-2.1875 1.4375 -2.1875 1.4375 0 0 Z " fill="#C6835F" transform="translate(25,41)"/>
<path d="M0 0 C0.86625 0.2784375 0.86625 0.2784375 1.75 0.5625 C4.20692525 1.04023546 5.64397534 0.75729364 8 0 C6.375 2.0625 6.375 2.0625 4 4 C0.75 3.75 0.75 3.75 -2 3 C-1.34 2.01 -0.68 1.02 0 0 Z " fill="#32A76A" transform="translate(47,89)"/>
</svg>
