<?xml version="1.0" encoding="UTF-8"?>
<svg version="1.1" xmlns="http://www.w3.org/2000/svg" width="96" height="128">
<path d="M0 0 C1.36125 0.86625 1.36125 0.86625 2.75 1.75 C3.8225 2.3275 4.895 2.905 6 3.5 C9.42156009 6.29945826 9.92926778 8.48219245 10.75 12.75 C11.74 12.75 12.73 12.75 13.75 12.75 C13.42 16.05 13.09 19.35 12.75 22.75 C14.07 23.08 15.39 23.41 16.75 23.75 C18.86892771 26.92839156 19.27473967 28.94888727 19.21875 32.7421875 C18.36153489 36.41392557 15.78497344 37.72668438 12.75 39.75 C13.12554602 41.15142781 13.52663776 42.54601628 13.9375 43.9375 C14.15792969 44.71480469 14.37835938 45.49210937 14.60546875 46.29296875 C15.65661011 48.96997984 15.65661011 48.96997984 18.3203125 51.0546875 C21.4252852 54.4991106 21.45803968 57.26325302 21.4375 61.6875 C21.49889844 66.74578719 22.02707209 70.95636992 23.75 75.75 C23.56282188 78.93202812 23.27164811 80.96752783 21.5 83.625 C19.16786614 85.12422891 17.46628175 84.97023906 14.75 84.75 C15.125 82.3125 15.125 82.3125 15.75 79.75 C16.41 79.42 17.07 79.09 17.75 78.75 C16.80125 78.440625 15.8525 78.13125 14.875 77.8125 C11.75 76.75 11.75 76.75 9.75 75.75 C10.08 77.73 10.41 79.71 10.75 81.75 C9.76 82.41 8.77 83.07 7.75 83.75 C8.74 84.74 8.74 84.74 9.75 85.75 C9.75 87.07 9.75 88.39 9.75 89.75 C3.81 89.75 -2.13 89.75 -8.25 89.75 C-8.25 83.81 -8.25 77.87 -8.25 71.75 C-8.91 71.75 -9.57 71.75 -10.25 71.75 C-10.25 77.69 -10.25 83.63 -10.25 89.75 C-16.19 89.75 -22.13 89.75 -28.25 89.75 C-27.25 84.75 -27.25 84.75 -26.25 83.75 C-27.24 83.09 -28.23 82.43 -29.25 81.75 C-29.4375 78.625 -29.4375 78.625 -29.25 75.75 C-30.24 76.74 -30.24 76.74 -31.25 77.75 C-33.875 78.375 -33.875 78.375 -36.25 78.75 C-35.26 79.41 -34.27 80.07 -33.25 80.75 C-33.25 82.07 -33.25 83.39 -33.25 84.75 C-35.5 85.0625 -35.5 85.0625 -38.25 84.75 C-40.625 82.6875 -40.625 82.6875 -42.25 79.75 C-42.06170224 76.1095767 -41.39922369 73.19767107 -40.25 69.75 C-40.12011251 66.40900515 -40.00218401 63.0740208 -39.99609375 59.73046875 C-39.85373552 55.70697571 -39.4972763 54.02119382 -36.74609375 51.00390625 C-35.51052734 49.88822266 -35.51052734 49.88822266 -34.25 48.75 C-33.52786971 46.6354509 -33.52786971 46.6354509 -33.5625 44.5625 C-33.25 40.75 -33.25 40.75 -31.25 38.75 C-31.9615625 38.2240625 -31.9615625 38.2240625 -32.6875 37.6875 C-35.02101487 34.79394157 -35.12356532 32.4166057 -35.25 28.75 C-34.0625 25.875 -34.0625 25.875 -32.25 23.75 C-30.93 23.42 -29.61 23.09 -28.25 22.75 C-28.58 19.45 -28.91 16.15 -29.25 12.75 C-28.26 12.75 -27.27 12.75 -26.25 12.75 C-26.3325 11.739375 -26.415 10.72875 -26.5 9.6875 C-26.06588139 6.60462869 -25.28422648 5.77901688 -22.86328125 3.7265625 C-15.13235817 -1.12382458 -8.72172074 -3.35450798 0 0 Z M7.75 53.75 C6.12150031 58.10590568 5.40881554 61.98934612 5.125 66.625 C5.05023438 67.77742188 4.97546875 68.92984375 4.8984375 70.1171875 C4.84945312 70.98601562 4.80046875 71.85484375 4.75 72.75 C7.5738368 71.26874632 10.25531847 69.74465822 12.75 67.75 C13.66765886 65.16078227 13.66765886 65.16078227 12.75 62.75 C12.275625 62.275625 11.80125 61.80125 11.3125 61.3125 C9.06006578 59.06006578 9.09268926 56.8342033 8.75 53.75 C8.42 53.75 8.09 53.75 7.75 53.75 Z M-27.25 54.75 C-27.53875 55.69875 -27.8275 56.6475 -28.125 57.625 C-29.25 60.75 -29.25 60.75 -31.25 62.75 C-31.41687448 65.33354218 -31.41687448 65.33354218 -31.25 67.75 C-27.785 69.73 -27.785 69.73 -24.25 71.75 C-24.91 66.14 -25.57 60.53 -26.25 54.75 C-26.58 54.75 -26.91 54.75 -27.25 54.75 Z M-24.25 79.75 C-23.25 81.75 -23.25 81.75 -23.25 81.75 Z M4.75 79.75 C5.75 81.75 5.75 81.75 5.75 81.75 Z " fill="#406F93" transform="translate(57.25,38.25)"/>
<path d="M0 0 C1.36125 0.86625 1.36125 0.86625 2.75 1.75 C3.8225 2.3275 4.895 2.905 6 3.5 C9.42156009 6.29945826 9.92926778 8.48219245 10.75 12.75 C11.74 12.75 12.73 12.75 13.75 12.75 C13.42 16.05 13.09 19.35 12.75 22.75 C14.07 23.08 15.39 23.41 16.75 23.75 C19.20122505 27.42683758 19.45497355 30.47717253 18.75 34.75 C17 37.25 17 37.25 14.75 38.75 C13.43 38.75 12.11 38.75 10.75 38.75 C10.75 36.11 10.75 33.47 10.75 30.75 C8.27372901 31.38921965 8.27372901 31.38921965 5.75 32.75 C4.45957237 35.01601865 4.45957237 35.01601865 3.75 37.75 C3.09 39.73 2.43 41.71 1.75 43.75 C-4.52 43.75 -10.79 43.75 -17.25 43.75 C-17.78625 42.326875 -18.3225 40.90375 -18.875 39.4375 C-20.45911435 35.81341105 -21.02723737 34.89136859 -24.5 32.6875 C-25.4075 32.378125 -26.315 32.06875 -27.25 31.75 C-26.92 34.06 -26.59 36.37 -26.25 38.75 C-29.88364102 38.50775727 -31.6842157 38.37053762 -34.1875 35.625 C-35.56976196 31.88476175 -35.24388431 29.58355378 -34.25 25.75 C-32.875 23.8125 -32.875 23.8125 -31.25 22.75 C-30.26 22.75 -29.27 22.75 -28.25 22.75 C-28.58 19.45 -28.91 16.15 -29.25 12.75 C-28.26 12.75 -27.27 12.75 -26.25 12.75 C-26.3325 11.739375 -26.415 10.72875 -26.5 9.6875 C-26.06588139 6.60462869 -25.28422648 5.77901688 -22.86328125 3.7265625 C-15.13235817 -1.12382458 -8.72172074 -3.35450798 0 0 Z " fill="#5391C1" transform="translate(57.25,38.25)"/>
<path d="M0 0 C0.86625 0.495 0.86625 0.495 1.75 1 C4.19883862 2.27075898 4.19883862 2.27075898 8 2 C8.061875 2.928125 8.12375 3.85625 8.1875 4.8125 C8.68827104 8.1890663 8.68827104 8.1890663 11.5625 9.875 C12.366875 10.24625 13.17125 10.6175 14 11 C14 9.68 14 8.36 14 7 C24.23 7 34.46 7 45 7 C45 8.65 45 10.3 45 12 C48.06057006 10.40521237 48.06057006 10.40521237 51 8 C51.9688059 4.86734521 51.9688059 4.86734521 52 2 C52.94875 1.855625 53.8975 1.71125 54.875 1.5625 C57.8934494 1.17064601 57.8934494 1.17064601 60 0 C61.18435107 2.36870215 61.03902202 3.68616938 60.9375 6.3125 C60.87709442 10.09388959 61.57937972 12.49580331 63 16 C62.81061747 19.15637552 62.51066213 21.23400681 60.75 23.875 C58.41786614 25.37422891 56.71628175 25.22023906 54 25 C54.375 22.5625 54.375 22.5625 55 20 C55.66 19.67 56.32 19.34 57 19 C56.05125 18.690625 55.1025 18.38125 54.125 18.0625 C51 17 51 17 49 16 C49.495 18.97 49.495 18.97 50 22 C49.01 22.66 48.02 23.32 47 24 C47.66 24.66 48.32 25.32 49 26 C49 27.32 49 28.64 49 30 C43.06 30 37.12 30 31 30 C31 24.06 31 18.12 31 12 C30.34 12 29.68 12 29 12 C29 17.94 29 23.88 29 30 C23.06 30 17.12 30 11 30 C12 25 12 25 13 24 C12.01 23.34 11.02 22.68 10 22 C9.8125 18.875 9.8125 18.875 10 16 C9.34 16.66 8.68 17.32 8 18 C5.375 18.625 5.375 18.625 3 19 C3.99 19.66 4.98 20.32 6 21 C6 22.32 6 23.64 6 25 C3.75 25.3125 3.75 25.3125 1 25 C-1.375 22.9375 -1.375 22.9375 -3 20 C-2.81170224 16.3595767 -2.14922369 13.44767107 -1 10 C-0.95711723 8.64651249 -0.95951966 7.29106149 -1 5.9375 C-1 2 -1 2 0 0 Z M15 20 C16 22 16 22 16 22 Z M44 20 C45 22 45 22 45 22 Z " fill="#528FBF" transform="translate(18,98)"/>
<path d="M0 0 C4.27761063 0.47529007 6.34161627 2.7668306 9 6 C9.8125 9.3125 9.8125 9.3125 10 12 C11.134375 12.12375 12.26875 12.2475 13.4375 12.375 C14.613125 12.58125 15.78875 12.7875 17 13 C17.33 13.66 17.66 14.32 18 15 C17.071875 15.2475 16.14375 15.495 15.1875 15.75 C11.66796935 17.1302081 10.57045463 17.5973483 9 21 C8.76545617 24.01779725 8.82578332 26.98024429 9 30 C5.625 30.125 5.625 30.125 2 30 C1.34 29.34 0.68 28.68 0 28 C-0.53625 28.515625 -1.0725 29.03125 -1.625 29.5625 C-4 31 -4 31 -7.125 30.8125 C-10 30 -10 30 -12 28 C-12.4375 25.1875 -12.4375 25.1875 -12 22 C-11.195625 21.21625 -10.39125 20.4325 -9.5625 19.625 C-6.07613615 16.05360289 -6.40022848 13.8827874 -6 9 C-4 7 -4 7 -1.375 6.875 C-0.59125 6.91625 0.1925 6.9575 1 7 C0.67 4.69 0.34 2.38 0 0 Z " fill="#417096" transform="translate(30,70)"/>
<path d="M0 0 C-0.33 0.99 -0.66 1.98 -1 3 C-0.38125 3.268125 0.2375 3.53625 0.875 3.8125 C3 5 3 5 5 8 C4.9765625 10.26171875 4.9765625 10.26171875 4.625 12.6875 C4.45871094 13.89986328 4.45871094 13.89986328 4.2890625 15.13671875 C4.14597656 16.05904297 4.14597656 16.05904297 4 17 C6.31 17 8.62 17 11 17 C11 18.65 11 20.3 11 22 C0.77 22 -9.46 22 -20 22 C-20 20.35 -20 18.7 -20 17 C-17.69 17 -15.38 17 -13 17 C-13.33 16.34 -13.66 15.68 -14 15 C-14.37163382 11.77917357 -14.66699869 9.17658569 -13.0234375 6.27734375 C-9.11591072 1.39892841 -6.17262387 -0.34292355 0 0 Z " fill="#344D62" transform="translate(52,83)"/>
<path d="M0 0 C2.67404223 1.87182956 3.71280729 2.60122917 4.5 5.75 C4.17 8.06 3.84 10.37 3.5 12.75 C-4.42 12.75 -12.34 12.75 -20.5 12.75 C-20.5 9.41666667 -20.5 6.08333333 -20.5 2.75 C-13.79326434 -1.91555524 -7.78217595 -2.77934855 0 0 Z " fill="#BDD2E3" transform="translate(57.5,38.25)"/>
<path d="M0 0 C2 2 2 2 2.125 3.98828125 C2.08375 4.75527344 2.0425 5.52226563 2 6.3125 C1.89667302 10.11736399 2.56954819 12.4715522 4 16 C3.81061747 19.15637552 3.51066213 21.23400681 1.75 23.875 C-0.58213386 25.37422891 -2.28371825 25.22023906 -5 25 C-4.625 22.5625 -4.625 22.5625 -4 20 C-3.34 19.67 -2.68 19.34 -2 19 C-2.94875 18.690625 -3.8975 18.38125 -4.875 18.0625 C-8 17 -8 17 -10 16 C-9.67 17.98 -9.34 19.96 -9 22 C-10.32 22.33 -11.64 22.66 -13 23 C-15.48836965 19.26744552 -15.54226552 17.41559065 -15 13 C-12.7705435 10.7705435 -10.80147786 9.40073893 -8 8 C-7.34227572 4.97065509 -7.34227572 4.97065509 -7 2 C-6.030625 1.855625 -5.06125 1.71125 -4.0625 1.5625 C-1.13513227 1.32437659 -1.13513227 1.32437659 0 0 Z " fill="#5086B0" transform="translate(77,98)"/>
<path d="M0 0 C0.86625 0.495 0.86625 0.495 1.75 1 C4.19883862 2.27075898 4.19883862 2.27075898 8 2 C8.04125 2.9075 8.0825 3.815 8.125 4.75 C8.71984074 8.26713083 8.71984074 8.26713083 12 10.3125 C12.99 10.869375 13.98 11.42625 15 12 C16 13 16 13 16.1875 16.375 C16 20 16 20 14 23 C12.68 22.67 11.36 22.34 10 22 C10 20.02 10 18.04 10 16 C9.34 16.66 8.68 17.32 8 18 C5.375 18.625 5.375 18.625 3 19 C3.99 19.66 4.98 20.32 6 21 C6 22.32 6 23.64 6 25 C3.75 25.3125 3.75 25.3125 1 25 C-1.375 22.9375 -1.375 22.9375 -3 20 C-2.81170224 16.3595767 -2.14922369 13.44767107 -1 10 C-0.95711723 8.64651249 -0.95951966 7.29106149 -1 5.9375 C-1 2 -1 2 0 0 Z " fill="#4F86B0" transform="translate(18,98)"/>
<path d="M0 0 C1.9375 1.0625 1.9375 1.0625 3 3 C3.75471698 9.79245283 3.75471698 9.79245283 1.4375 13.5 C-1.94888329 15.58392818 -4.09385318 15.55802097 -8 15 C-10.4375 13.5 -10.4375 13.5 -12 11 C-12.61014545 8.1910285 -12.65360928 5.80363979 -12 3 C-8.3655827 -1.51548816 -5.40521016 -1.50144727 0 0 Z " fill="#4E7FA0" transform="translate(54,57)"/>
<path d="M0 0 C4.70588235 0.70588235 4.70588235 0.70588235 6 2 C6.04063832 3.66617115 6.042721 5.33388095 6 7 C6.886875 6.896875 7.77375 6.79375 8.6875 6.6875 C12 7 12 7 14.875 9.25 C17 12 17 12 17 16 C11.06 16 5.12 16 -1 16 C-1.020625 13.545625 -1.04125 11.09125 -1.0625 8.5625 C-1.071604 7.78849854 -1.08070801 7.01449707 -1.09008789 6.21704102 C-1.09724913 4.47778283 -1.05024702 2.73854696 -1 1 C-0.67 0.67 -0.34 0.34 0 0 Z " fill="#324859" transform="translate(50,112)"/>
<path d="M0 0 C1.65 0.33 3.3 0.66 5 1 C5 5.95 5 10.9 5 16 C-0.94 16 -6.88 16 -13 16 C-11.74683544 9.73417722 -11.74683544 9.73417722 -8 7 C-4.75 6.75 -4.75 6.75 -2 7 C-2.04125 6.21625 -2.0825 5.4325 -2.125 4.625 C-2 2 -2 2 0 0 Z " fill="#32485A" transform="translate(42,112)"/>
<path d="M0 0 C3.04594267 0.33843807 4.29909045 1.23791285 6.75 3.1875 C9 6 9 6 9.3125 9.3125 C9.1578125 10.6428125 9.1578125 10.6428125 9 12 C6.03 12 3.06 12 0 12 C0 14.31 0 16.62 0 19 C-4.875 17.125 -4.875 17.125 -6 16 C-6.1875 12.5625 -6.1875 12.5625 -6 9 C-4 7 -4 7 -1.375 6.875 C-0.59125 6.91625 0.1925 6.9575 1 7 C0.67 4.69 0.34 2.38 0 0 Z " fill="#345065" transform="translate(30,70)"/>
<path d="M0 0 C0.1953125 2.01822917 0.390625 4.03645833 0.5859375 6.0546875 C0.86374749 8.22668245 0.86374749 8.22668245 3 10 C3.375 12.875 3.375 12.875 3 16 C1.125 18.375 1.125 18.375 -1 20 C-1.66 20 -2.32 20 -3 20 C-2.67 17.69 -2.34 15.38 -2 13 C-4.31 13 -6.62 13 -9 13 C-8.49073596 8.62032928 -7.59292635 5.59020572 -5 2 C-2 0 -2 0 0 0 Z " fill="#334F63" transform="translate(68,69)"/>
<path d="M0 0 C2.14762184 3.22143276 2.561068 4.2595467 2 8 C0.375 9.875 0.375 9.875 -2 11 C-5.67293796 10.77962372 -7.36966546 10.63033454 -10 8 C-10.32954432 4.90228335 -10.45334601 2.82668977 -8.9375 0.0625 C-5.78433176 -1.66665678 -3.37491745 -0.8590699 0 0 Z " fill="#354F64" transform="translate(28,90)"/>
<path d="M0 0 C2.1640625 -0.29296875 2.1640625 -0.29296875 4.625 -0.1875 C5.44226563 -0.16042969 6.25953125 -0.13335937 7.1015625 -0.10546875 C8.04128906 -0.05326172 8.04128906 -0.05326172 9 0 C10.41441874 2.82883747 10.31900332 4.87376745 10 8 C7.88310295 10.35210784 6.55958485 10.91810953 3.4375 11.375 C1 11 1 11 -0.8125 9.8125 C-2.41121458 7.37235669 -2.35840349 5.86722793 -2 3 C-1.34 2.01 -0.68 1.02 0 0 Z " fill="#375165" transform="translate(68,90)"/>
<path d="M0 0 C5.3820598 -0.35880399 5.3820598 -0.35880399 7.9375 1.125 C9.52513015 3.92670027 8.74070176 5.96985644 8 9 C1.58805513 10.33078101 1.58805513 10.33078101 -1 8.875 C-2 7 -2 7 -1.75 4.4375 C-1 2 -1 2 0 0 Z " fill="#F8D130" transform="translate(46,59)"/>
<path d="M0 0 C2.31 0.33 4.62 0.66 7 1 C7.48695652 8.30434783 7.48695652 8.30434783 5.25 11.5 C3 13 3 13 -1 13 C-1.33 10.03 -1.66 7.06 -2 4 C-1.34 4 -0.68 4 0 4 C0 2.68 0 1.36 0 0 Z " fill="#548AB4" transform="translate(69,64)"/>
<path d="M0 0 C3 1.875 3 1.875 5 4 C5 4.66 5 5.32 5 6 C-0.94 6 -6.88 6 -13 6 C-9.97948232 -0.04103536 -6.45547724 -1.05498072 0 0 Z " fill="#FDFDFE" transform="translate(53,45)"/>
<path d="M0 0 C0.16947579 1.41633336 0.33545507 2.83308533 0.5 4.25 C0.5928125 5.03890625 0.685625 5.8278125 0.78125 6.640625 C1 9 1 9 1 13 C-1.8125 12.8125 -1.8125 12.8125 -5 12 C-7 9.6875 -7 9.6875 -8 7 C-7.00345363 3.23526925 -4.05678711 0 0 0 Z " fill="#538BB6" transform="translate(30,64)"/>
<path d="M0 0 C4.29 0 8.58 0 13 0 C13 2.97 13 5.94 13 9 C11.02 9 9.04 9 7 9 C6.34 7.02 5.68 5.04 5 3 C3.35 3 1.7 3 0 3 C0 2.01 0 1.02 0 0 Z " fill="#44769D" transform="translate(49,110)"/>
<path d="M0 0 C4.29 0 8.58 0 13 0 C12.67 0.99 12.34 1.98 12 3 C10.35 3.33 8.7 3.66 7 4 C6.67 5.65 6.34 7.3 6 9 C4.02 9 2.04 9 0 9 C0 6.03 0 3.06 0 0 Z " fill="#44769D" transform="translate(34,110)"/>
<path d="M0 0 C1.65 0.99 3.3 1.98 5 3 C4.67 5.31 4.34 7.62 4 10 C1.69 10 -0.62 10 -3 10 C-3.33 7.69 -3.66 5.38 -4 3 C-2.68 2.01 -1.36 1.02 0 0 Z " fill="#F76395" transform="translate(47,89)"/>
<path d="M0 0 C0 4.29 0 8.58 0 13 C-1.32 13.33 -2.64 13.66 -4 14 C-6.48836965 10.26744552 -6.54226552 8.41559065 -6 4 C-2 0 -2 0 0 0 Z " fill="#AFC2D0" transform="translate(68,107)"/>
<path d="M0 0 C5 3 5 3 6 4 C6.35897436 10.46153846 6.35897436 10.46153846 4 14 C2.68 13.67 1.36 13.34 0 13 C0 8.71 0 4.42 0 0 Z " fill="#B0C2D0" transform="translate(28,107)"/>
<path d="M0 0 C0.66 0 1.32 0 2 0 C3.45396825 6.17936508 3.45396825 6.17936508 1.375 9.9375 C-1 12 -1 12 -3.75 12.3125 C-4.86375 12.1578125 -4.86375 12.1578125 -6 12 C-5.25 7.25 -5.25 7.25 -3 5 C-2.505 4.13375 -2.01 3.2675 -1.5 2.375 C-1.005 1.59125 -0.51 0.8075 0 0 Z " fill="#A5B6C3" transform="translate(78,111)"/>
<path d="M0 0 C0.66 0 1.32 0 2 0 C3.02611949 1.65071396 4.02308143 3.31970006 5 5 C5.8353125 5.7734375 5.8353125 5.7734375 6.6875 6.5625 C8 8 8 8 8 12 C5.75 12.3125 5.75 12.3125 3 12 C0.625 9.9375 0.625 9.9375 -1 7 C-0.75 3.1875 -0.75 3.1875 0 0 Z " fill="#A5B6C3" transform="translate(16,111)"/>
<path d="M0 0 C0.66 0.33 1.32 0.66 2 1 C1.125 4.875 1.125 4.875 0 6 C-2.01964199 6.07244053 -4.04167124 6.08377188 -6.0625 6.0625 C-7.71958984 6.04896484 -7.71958984 6.04896484 -9.41015625 6.03515625 C-10.26480469 6.02355469 -11.11945312 6.01195313 -12 6 C-12.33 4.35 -12.66 2.7 -13 1 C-12.01 1.33 -11.02 1.66 -10 2 C-8.43881572 2.06740865 -6.8749748 2.08514456 -5.3125 2.0625 C-4.50425781 2.05347656 -3.69601563 2.04445313 -2.86328125 2.03515625 C-2.24839844 2.02355469 -1.63351563 2.01195313 -1 2 C-0.67 1.34 -0.34 0.68 0 0 Z " fill="#36556C" transform="translate(55,75)"/>
<path d="M0 0 C2 2 2 2 2.1953125 3.9453125 C2.13020833 5.96354167 2.06510417 7.98177083 2 10 C1.34 10 0.68 10 0 10 C0 9.34 0 8.68 0 8 C-2.97 7.505 -2.97 7.505 -6 7 C-6.33 5.35 -6.66 3.7 -7 2 C-6.030625 1.855625 -5.06125 1.71125 -4.0625 1.5625 C-1.13513227 1.32437659 -1.13513227 1.32437659 0 0 Z " fill="#48779D" transform="translate(77,98)"/>
<path d="M0 0 C0.86625 0.495 0.86625 0.495 1.75 1 C4.19883862 2.27075898 4.19883862 2.27075898 8 2 C7.67 3.65 7.34 5.3 7 7 C5.02 7.33 3.04 7.66 1 8 C1 8.66 1 9.32 1 10 C0.34 10 -0.32 10 -1 10 C-1.125 2.25 -1.125 2.25 0 0 Z " fill="#48779D" transform="translate(18,98)"/>
<path d="M0 0 C2.0625 0.4375 2.0625 0.4375 4 1 C4.93423645 4.01031744 5.04449911 4.86650268 4 8 C2.02 8 0.04 8 -2 8 C-1.125 1.125 -1.125 1.125 0 0 Z " fill="#4C7EA5" transform="translate(33,43)"/>
<path d="M0 0 C2.0625 0.4375 2.0625 0.4375 4 1 C4.33 3.31 4.66 5.62 5 8 C3.33388095 8.042721 1.66617115 8.04063832 0 8 C-1 7 -1 7 -1.125 4 C-1 1 -1 1 0 0 Z " fill="#4D7FA6" transform="translate(62,43)"/>
<path d="M0 0 C1.32 0.99 2.64 1.98 4 3 C3.75 5.375 3.75 5.375 3 8 C0.9375 9.3125 0.9375 9.3125 -1 10 C-1.33 8.02 -1.66 6.04 -2 4 C-1.34 4 -0.68 4 0 4 C0 2.68 0 1.36 0 0 Z " fill="#42739A" transform="translate(69,64)"/>
<path d="M0 0 C0.66 0 1.32 0 2 0 C2.19573608 1.43640171 2.38127816 2.87419504 2.5625 4.3125 C2.66691406 5.11300781 2.77132813 5.91351563 2.87890625 6.73828125 C3 9 3 9 2 12 C-0.0625 9.875 -0.0625 9.875 -2 7 C-1.69387755 1.69387755 -1.69387755 1.69387755 0 0 Z " fill="#4478A0" transform="translate(28,64)"/>
<path d="M0 0 C4.70588235 0.70588235 4.70588235 0.70588235 6 2 C6.04063832 3.66617115 6.042721 5.33388095 6 7 C5.34 6.34 4.68 5.68 4 5 C1.39719432 5.32041397 1.39719432 5.32041397 -1 6 C-1.042721 4.33388095 -1.04063832 2.66617115 -1 1 C-0.67 0.67 -0.34 0.34 0 0 Z " fill="#395973" transform="translate(50,112)"/>
<path d="M0 0 C2.5 1.375 2.5 1.375 5 3 C5 3.66 5 4.32 5 5 C2.03 5 -0.94 5 -4 5 C-3 2 -3 2 0 0 Z " fill="#E35C8A" transform="translate(47,89)"/>
<path d="M0 0 C3.3 0 6.6 0 10 0 C10 0.99 10 1.98 10 3 C7.03 3 4.06 3 1 3 C0.67 2.01 0.34 1.02 0 0 Z " fill="#B2C8D9" transform="translate(44,75)"/>
<path d="M0 0 C2.625 0.375 2.625 0.375 5 1 C4.01 1.495 4.01 1.495 3 2 C3.33 2.99 3.66 3.98 4 5 C2.35 5 0.7 5 -1 5 C-1.33 5.66 -1.66 6.32 -2 7 C-2.125 4.625 -2.125 4.625 -2 2 C-1.34 1.34 -0.68 0.68 0 0 Z " fill="#385B75" transform="translate(42,112)"/>
<path d="M0 0 C1.32 0 2.64 0 4 0 C4.5625 1.9375 4.5625 1.9375 5 4 C4 5 4 5 1.4375 5.0625 C0.2309375 5.0315625 0.2309375 5.0315625 -1 5 C-0.67 3.35 -0.34 1.7 0 0 Z " fill="#406E93" transform="translate(71,92)"/>
<path d="M0 0 C1.65 0.33 3.3 0.66 5 1 C4.67 2.32 4.34 3.64 4 5 C2.35 4.67 0.7 4.34 -1 4 C-0.67 2.68 -0.34 1.36 0 0 Z " fill="#477CA6" transform="translate(61,62)"/>
<path d="M0 0 C1.65 0.33 3.3 0.66 5 1 C4.67 2.32 4.34 3.64 4 5 C2.35 4.67 0.7 4.34 -1 4 C-0.67 2.68 -0.34 1.36 0 0 Z " fill="#477CA7" transform="translate(34,62)"/>
<path d="M0 0 C2.0625 0.4375 2.0625 0.4375 4 1 C4 2.32 4 3.64 4 5 C2.35 5 0.7 5 -1 5 C-1 1 -1 1 0 0 Z " fill="#406F94" transform="translate(22,92)"/>
<path d="M0 0 C1.46726798 3.81489674 0.43336419 6.29011622 -1 10 C-1.66 9.67 -2.32 9.34 -3 9 C-3.36923077 3.46153846 -3.36923077 3.46153846 -1.5 1.125 C-1.005 0.75375 -0.51 0.3825 0 0 Z " fill="#3C566A" transform="translate(21,89)"/>
</svg>
