<?xml version="1.0" encoding="UTF-8"?>
<svg version="1.1" xmlns="http://www.w3.org/2000/svg" width="96" height="128">
<path d="M0 0 C7.054754 4.24470913 10.12521813 10.37003574 12.25 18.125 C13.28635622 22.8922386 13.74202053 27.19947798 13.375 32.0625 C13.045 32.3925 12.715 32.7225 12.375 33.0625 C11.86249213 35.79686282 11.43560701 38.49633296 11.0625 41.25 C10.93810547 42.00603516 10.81371094 42.76207031 10.68554688 43.54101562 C10.11089755 47.87154289 10.08433101 49.55368422 12.33203125 53.48828125 C13.00621094 54.33777344 13.68039063 55.18726563 14.375 56.0625 C14.375 56.7225 14.375 57.3825 14.375 58.0625 C15.035 58.0625 15.695 58.0625 16.375 58.0625 C17.34583273 62.96326364 17.55815688 67.65212312 17.5625 72.625 C17.57474609 73.36685547 17.58699219 74.10871094 17.59960938 74.87304688 C17.61077203 79.05160068 17.33562717 82.26515147 15.375 86.0625 C14.375 87.0625 14.375 87.0625 11.87109375 87.16015625 C10.86175781 87.14855469 9.85242188 87.13695313 8.8125 87.125 C7.80058594 87.11597656 6.78867188 87.10695313 5.74609375 87.09765625 C4.96363281 87.08605469 4.18117187 87.07445313 3.375 87.0625 C0.72215026 78.60654145 0.72215026 78.60654145 1.375 75.0625 C3.8125 72.4375 3.8125 72.4375 6.375 70.0625 C6.87 68.5775 6.87 68.5775 7.375 67.0625 C6.715 67.0625 6.055 67.0625 5.375 67.0625 C4.941875 65.928125 4.50875 64.79375 4.0625 63.625 C3.2271875 61.8615625 3.2271875 61.8615625 2.375 60.0625 C1.385 59.7325 0.395 59.4025 -0.625 59.0625 C-0.645625 60.279375 -0.66625 61.49625 -0.6875 62.75 C-0.69910156 63.43449219 -0.71070313 64.11898437 -0.72265625 64.82421875 C-0.68925778 67.0817726 -0.68925778 67.0817726 -0.125 69.3125 C0.54593815 73.00265985 0.48089141 76.64000065 0.4375 80.375 C0.43298828 81.11556641 0.42847656 81.85613281 0.42382812 82.61914062 C0.41212175 84.43362899 0.39418898 86.24807534 0.375 88.0625 C1.695 88.7225 3.015 89.3825 4.375 90.0625 C4.375 91.0525 4.375 92.0425 4.375 93.0625 C-0.575 93.0625 -5.525 93.0625 -10.625 93.0625 C-11.12 84.1525 -11.12 84.1525 -11.625 75.0625 C-13.605 75.0625 -15.585 75.0625 -17.625 75.0625 C-17.955 81.0025 -18.285 86.9425 -18.625 93.0625 C-23.575 93.0625 -28.525 93.0625 -33.625 93.0625 C-33.295 91.7425 -32.965 90.4225 -32.625 89.0625 C-31.14 88.5675 -31.14 88.5675 -29.625 88.0625 C-29.59588997 84.16668244 -29.57816413 80.270893 -29.5625 76.375 C-29.55412109 75.27220703 -29.54574219 74.16941406 -29.53710938 73.03320312 C-29.53388672 71.96650391 -29.53066406 70.89980469 -29.52734375 69.80078125 C-29.52210693 68.82149658 -29.51687012 67.84221191 -29.51147461 66.83325195 C-29.62191457 64.13780428 -30.01965834 61.68704361 -30.625 59.0625 C-33.08778801 61.52528801 -33.62271255 63.76926982 -34.625 67.0625 C-35.285 67.0625 -35.945 67.0625 -36.625 67.0625 C-34.71553516 70.54501125 -34.71553516 70.54501125 -32.00390625 73.37890625 C-30.625 75.0625 -30.625 75.0625 -30.515625 77.7265625 C-30.63421875 78.70367187 -30.7528125 79.68078125 -30.875 80.6875 C-30.98328125 81.66976562 -31.0915625 82.65203125 -31.203125 83.6640625 C-31.625 86.0625 -31.625 86.0625 -32.625 87.0625 C-34.43427281 87.18737758 -36.24896107 87.23820846 -38.0625 87.25 C-39.05121094 87.26417969 -40.03992188 87.27835937 -41.05859375 87.29296875 C-43.625 87.0625 -43.625 87.0625 -45.625 85.0625 C-47.18135118 78.08828482 -48.8593068 64.5311136 -45.625 58.0625 C-44.965 58.0625 -44.305 58.0625 -43.625 58.0625 C-43.3775 57.340625 -43.13 56.61875 -42.875 55.875 C-41.625 53.0625 -41.625 53.0625 -39.5390625 50.828125 C-37.05278829 47.23571246 -37.31814021 45.29562666 -37.75 41 C-37.85570312 39.79214844 -37.96140625 38.58429688 -38.0703125 37.33984375 C-38.56618914 34.40998105 -39.26703966 32.63577778 -40.625 30.0625 C-40.375 26.9375 -40.375 26.9375 -39.625 23.0625 C-39.52316406 22.28390625 -39.42132813 21.5053125 -39.31640625 20.703125 C-38.08277096 12.51280413 -34.67722112 6.04589549 -27.9375 1.0625 C-20.1675089 -3.62881538 -8.32338881 -3.69787198 0 0 Z " fill="#B27456" transform="translate(62.625,34.9375)"/>
<path d="M0 0 C6.07365812 3.60942983 9.63182822 9.24746812 11.8125 15.875 C12.32675864 18.78913228 12.45941863 20.35145343 11.375 23.0625 C10.055 22.4025 8.735 21.7425 7.375 21.0625 C7.87 21.784375 8.365 22.50625 8.875 23.25 C10.45419285 26.21098659 10.65678312 27.77503029 10.375 31.0625 C8.725 31.7225 7.075 32.3825 5.375 33.0625 C5.045 32.4025 4.715 31.7425 4.375 31.0625 C2.39251285 30.34543018 0.39084651 29.67959587 -1.625 29.0625 C-2.285 28.7325 -2.945 28.4025 -3.625 28.0625 C-3.955 29.7125 -4.285 31.3625 -4.625 33.0625 C-5.615 32.7325 -6.605 32.4025 -7.625 32.0625 C-7.50125 31.175625 -7.3775 30.28875 -7.25 29.375 C-7.28562845 25.80658788 -7.28562845 25.80658788 -10.4375 23.5 C-10.98277344 23.10039063 -11.52804688 22.70078125 -12.08984375 22.2890625 C-14.26748045 20.54916956 -15.41696696 18.54567902 -16.625 16.0625 C-16.625 15.4025 -16.625 14.7425 -16.625 14.0625 C-17.15867187 14.40023437 -17.69234375 14.73796875 -18.2421875 15.0859375 C-23.28141859 18.10250144 -27.64335408 19.76515114 -33.4609375 20.60546875 C-35.9062353 20.98219061 -35.9062353 20.98219061 -38.625 23.0625 C-39.3494001 16.39801909 -37.27786305 11.61961247 -33.625 6.0625 C-25.2567909 -3.22068413 -11.33758064 -5.00441155 0 0 Z " fill="#BC7A5B" transform="translate(62.625,34.9375)"/>
<path d="M0 0 C1.3671875 1.828125 1.3671875 1.828125 2.875 4.25 C4.59836219 6.95331324 6.036585 9.03465947 8.375 11.25 C10 13 10 13 10.25 15.75 C10.1675 16.4925 10.085 17.235 10 18 C10.66 18 11.32 18 12 18 C12.33 16.68 12.66 15.36 13 14 C15.97 14.99 18.94 15.98 22 17 C22 17.66 22 18.32 22 19 C23.65 18.34 25.3 17.68 27 17 C26.690625 16.0925 26.38125 15.185 26.0625 14.25 C25.2727737 11.83436662 24.57050703 9.47219715 24 7 C26.86724686 7.57344937 27.8614515 7.8614515 30 10 C30.33953612 13.00731988 30.56731553 15.10038729 30 18 C27.75 20.5 27.75 20.5 25 22 C23.68 22 22.36 22 21 22 C20.9071875 22.8353125 20.9071875 22.8353125 20.8125 23.6875 C19.33191859 27.90146248 16.34019423 30.31355905 12.4375 32.3125 C4.68875327 33.86224935 -3.12242059 34.21076291 -10 30 C-11.98929653 28.09697398 -13.39968323 26.27923904 -15 24 C-15 23.34 -15 22.68 -15 22 C-15.763125 21.87625 -16.52625 21.7525 -17.3125 21.625 C-20 21 -20 21 -23 19 C-23.83902226 15.15448132 -24.25360525 12.76081574 -23 9 C-20.17919153 6.39184672 -17.95028217 5.58988207 -14.1875 5.0625 C-9.36938431 4.22982713 -4.42876963 0 0 0 Z " fill="#F8D2AE" transform="translate(46,49)"/>
<path d="M0 0 C0.07489238 4.19397337 0.03745221 8.00479549 -0.75 12.125 C-1.0540755 16.83817023 0.14541191 18.36688789 3 22 C3 22.66 3 23.32 3 24 C3.66 24 4.32 24 5 24 C5.97083273 28.90076364 6.18315688 33.58962312 6.1875 38.5625 C6.19974609 39.30435547 6.21199219 40.04621094 6.22460938 40.81054688 C6.23577203 44.98910068 5.96062717 48.20265147 4 52 C3 53 3 53 0.49609375 53.09765625 C-0.51324219 53.08605469 -1.52257812 53.07445312 -2.5625 53.0625 C-3.57441406 53.05347656 -4.58632812 53.04445312 -5.62890625 53.03515625 C-6.80259766 53.01775391 -6.80259766 53.01775391 -8 53 C-10.65284974 44.54404145 -10.65284974 44.54404145 -10 41 C-7.5625 38.375 -7.5625 38.375 -5 36 C-4.67 35.01 -4.34 34.02 -4 33 C-4.66 33 -5.32 33 -6 33 C-6.433125 31.865625 -6.86625 30.73125 -7.3125 29.5625 C-7.869375 28.386875 -8.42625 27.21125 -9 26 C-9.99 25.67 -10.98 25.34 -12 25 C-12.33 27.64 -12.66 30.28 -13 33 C-17.5135522 31.57680786 -20.03879143 29.30820734 -23.3125 25.9375 C-24.63701172 24.58978516 -24.63701172 24.58978516 -25.98828125 23.21484375 C-28 21 -28 21 -28 20 C-27.39671875 19.85304688 -26.7934375 19.70609375 -26.171875 19.5546875 C-20.29931759 17.90658268 -18.1536657 16.40628405 -15 11 C-14.154375 10.505 -13.30875 10.01 -12.4375 9.5 C-9.72577882 8.13051302 -9.72577882 8.13051302 -8.5 4.9375 C-7 2 -7 2 -4.4375 0.625 C-2 0 -2 0 0 0 Z " fill="#709DB8" transform="translate(74,69)"/>
<path d="M0 0 C1.58984375 1.72265625 1.58984375 1.72265625 2.9375 4.0625 C6.92783994 10.58005523 11.59030098 15.59030098 17 21 C11.72 21 6.44 21 1 21 C0.34 18.36 -0.32 15.72 -1 13 C-3.46278801 15.46278801 -3.99771255 17.70676982 -5 21 C-5.66 21 -6.32 21 -7 21 C-5.09053516 24.48251125 -5.09053516 24.48251125 -2.37890625 27.31640625 C-1 29 -1 29 -0.890625 31.6640625 C-1.00921875 32.64117187 -1.1278125 33.61828125 -1.25 34.625 C-1.35828125 35.60726562 -1.4665625 36.58953125 -1.578125 37.6015625 C-2 40 -2 40 -3 41 C-4.80927281 41.12487758 -6.62396107 41.17570846 -8.4375 41.1875 C-9.42621094 41.20167969 -10.41492188 41.21585938 -11.43359375 41.23046875 C-14 41 -14 41 -16 39 C-17.55635118 32.02578482 -19.2343068 18.4686136 -16 12 C-15.34 12 -14.68 12 -14 12 C-13.7525 11.278125 -13.505 10.55625 -13.25 9.8125 C-10.66312254 3.99202571 -6.88473785 -1.04510105 0 0 Z " fill="#74A2BD" transform="translate(33,81)"/>
<path d="M0 0 C7.59 0 15.18 0 23 0 C23.66 2.31 24.32 4.62 25 7 C25.99 7.33 26.98 7.66 28 8 C28.0825 9.27875 28.165 10.5575 28.25 11.875 C28.45869931 14.05333418 28.45869931 14.05333418 29 16 C30.92064793 17.5899433 30.92064793 17.5899433 33 18 C33 18.99 33 19.98 33 21 C28.05 21 23.1 21 18 21 C17.67 15.06 17.34 9.12 17 3 C15.02 3 13.04 3 11 3 C10.67 8.94 10.34 14.88 10 21 C5.05 21 0.1 21 -5 21 C-4.67 19.68 -4.34 18.36 -4 17 C-3.01 16.67 -2.02 16.34 -1 16 C-0.67 10.72 -0.34 5.44 0 0 Z " fill="#DC965C" transform="translate(34,107)"/>
<path d="M0 0 C0.05416741 2.72943537 0.09375225 5.45778564 0.125 8.1875 C0.15013672 9.34088867 0.15013672 9.34088867 0.17578125 10.51757812 C0.21254316 14.80034056 0.03742246 18.11380531 -2 22 C-3 23 -3 23 -5.50390625 23.09765625 C-6.51324219 23.08605469 -7.52257812 23.07445313 -8.5625 23.0625 C-9.57441406 23.05347656 -10.58632812 23.04445313 -11.62890625 23.03515625 C-12.41136719 23.02355469 -13.19382812 23.01195313 -14 23 C-16.65284974 14.54404145 -16.65284974 14.54404145 -16 11 C-14.37550757 9.29220027 -12.70779973 7.62449243 -11 6 C-10.855625 5.29875 -10.71125 4.5975 -10.5625 3.875 C-10 2 -10 2 -7.1875 0.1875 C-3.8787585 -1.0451684 -3.17387501 -1.01205993 0 0 Z " fill="#E3C0A0" transform="translate(80,99)"/>
<path d="M0 0 C3.10634416 0.78617352 6.08891762 1.64900044 9 3 C10.3125 5.4375 10.3125 5.4375 11 8 C12.0828125 8.804375 12.0828125 8.804375 13.1875 9.625 C15.91742116 13.20213807 14.97746586 16.31882723 14.45703125 20.63671875 C14 23 14 23 13 24 C11.19072719 24.12487758 9.37603893 24.17570846 7.5625 24.1875 C6.57378906 24.20167969 5.58507812 24.21585938 4.56640625 24.23046875 C2 24 2 24 0 22 C-1.39690927 15.26584303 -1.42235657 7.84466088 -1 1 C-0.67 0.67 -0.34 0.34 0 0 Z " fill="#E3C0A0" transform="translate(17,98)"/>
<path d="M0 0 C2.15290914 1.07645457 4.30342426 2.15558976 6.4453125 3.25390625 C11.216436 5.58382808 15.15663216 7.24144994 20.5 7.5 C24.75755034 7.74328859 24.75755034 7.74328859 27.125 10.25 C28.00749763 13.02356398 28.24761782 15.11112545 28 18 C26.35 18.66 24.7 19.32 23 20 C22.67 19.34 22.34 18.68 22 18 C20.01751285 17.28293018 18.01584651 16.61709587 16 16 C15.34 15.67 14.68 15.34 14 15 C13.67 16.65 13.34 18.3 13 20 C12.01 19.67 11.02 19.34 10 19 C10.12375 18.113125 10.2475 17.22625 10.375 16.3125 C10.35237474 12.76139964 10.35237474 12.76139964 7.25 10.625 C6.70601562 10.23183594 6.16203125 9.83867188 5.6015625 9.43359375 C2.76287308 6.89262053 1.45932738 3.45946432 0 0 Z " fill="#DA865D" transform="translate(45,48)"/>
<path d="M0 0 C4.38880663 2.575556 6.75194657 5.58455917 9.3125 9.9375 C8.9825 10.5975 8.6525 11.2575 8.3125 11.9375 C7.44238281 11.32261719 7.44238281 11.32261719 6.5546875 10.6953125 C5.38292969 9.88707031 5.38292969 9.88707031 4.1875 9.0625 C3.42179687 8.52882813 2.65609375 7.99515625 1.8671875 7.4453125 C-5.53826508 3.07451021 -14.04358389 2.73104063 -22.35546875 4.5078125 C-27.61322933 6.18113664 -32.32990805 7.92451883 -35.5 12.625 C-35.891875 13.388125 -36.28375 14.15125 -36.6875 14.9375 C-37.0175 14.2775 -37.3475 13.6175 -37.6875 12.9375 C-29.52051895 -0.79379781 -15.34282654 -7.06882492 0 0 Z " fill="#D78761" transform="translate(62.6875,35.0625)"/>
<path d="M0 0 C0.77666016 -0.00708984 1.55332031 -0.01417969 2.35351562 -0.02148438 C7.26374688 0.03256559 10.68119231 0.76024997 14.9375 3.4375 C16.8125 5.625 16.8125 5.625 17.9375 7.4375 C17.195 7.27636719 16.4525 7.11523438 15.6875 6.94921875 C10.43142412 6.2319834 5.23614661 6.25319967 -0.0625 6.25 C-1.12984375 6.23775391 -2.1971875 6.22550781 -3.296875 6.21289062 C-8.60360234 6.20299001 -13.11221662 6.26315678 -18.0625 8.4375 C-16.84588077 4.65246239 -14.54168162 3.14951142 -11.13745117 1.27978516 C-7.47020393 -0.20886092 -3.90707458 -0.10101694 0 0 Z " fill="#779EB5" transform="translate(49.0625,40.5625)"/>
<path d="M0 0 C3.3 0 6.6 0 10 0 C10.33 1.32 10.66 2.64 11 4 C12.9837767 5.28436734 12.9837767 5.28436734 15 6 C15 6.99 15 7.98 15 9 C10.05 9 5.1 9 0 9 C0 6.03 0 3.06 0 0 Z " fill="#A56C51" transform="translate(52,119)"/>
<path d="M0 0 C3.3 0 6.6 0 10 0 C10 2.97 10 5.94 10 9 C5.05 9 0.1 9 -5 9 C-4.67 7.68 -4.34 6.36 -4 5 C-3.01 4.67 -2.02 4.34 -1 4 C-0.67 2.68 -0.34 1.36 0 0 Z " fill="#A56C51" transform="translate(34,119)"/>
<path d="M0 0 C0.19392201 5.52677733 -0.2520497 9.75614911 -2 15 C-2.56203125 14.68289062 -3.1240625 14.36578125 -3.703125 14.0390625 C-6.15196317 12.93125475 -8.08387855 12.61024601 -10.75 12.375 C-11.54921875 12.30023438 -12.3484375 12.22546875 -13.171875 12.1484375 C-13.77515625 12.09945312 -14.3784375 12.05046875 -15 12 C-14.236875 11.46375 -13.47375 10.9275 -12.6875 10.375 C-9.82576109 8.15632277 -9.82576109 8.15632277 -8.5 4.875 C-7 2 -7 2 -4.4375 0.625 C-2 0 -2 0 0 0 Z " fill="#B67658" transform="translate(74,69)"/>
<path d="M0 0 C6.27 0 12.54 0 19 0 C16.59340659 6.01648352 16.59340659 6.01648352 12 8 C9.0625 8.6875 9.0625 8.6875 6 8 C3.60894532 5.50001345 1.91351949 2.91583923 0 0 Z " fill="#BE9C7C" transform="translate(39,81)"/>
<path d="M0 0 C0.33 1.65 0.66 3.3 1 5 C-0.6232687 5.6708712 -2.24867578 6.33657029 -3.875 7 C-5.23238281 7.556875 -5.23238281 7.556875 -6.6171875 8.125 C-9 9 -9 9 -11 9 C-11.33 7.68 -11.66 6.36 -12 5 C-10.37750059 4.16180842 -8.75191503 3.3295884 -7.125 2.5 C-6.22007813 2.0359375 -5.31515625 1.571875 -4.3828125 1.09375 C-2 0 -2 0 0 0 Z " fill="#5E90AC" transform="translate(79,93)"/>
<path d="M0 0 C4.56454251 0.54339792 7.9728176 1.79463821 12 4 C11.67 5.32 11.34 6.64 11 8 C7 6.66666667 3 5.33333333 -1 4 C-0.67 2.68 -0.34 1.36 0 0 Z " fill="#5E90AC" transform="translate(17,94)"/>
<path d="M0 0 C3.3 0 6.6 0 10 0 C10 1.65 10 3.3 10 5 C6.7 5 3.4 5 0 5 C0 3.35 0 1.7 0 0 Z " fill="#E8C4A2" transform="translate(34,114)"/>
<path d="M0 0 C6.625 -0.125 6.625 -0.125 10 1 C10 2.32 10 3.64 10 5 C6.7 5 3.4 5 0 5 C0 3.35 0 1.7 0 0 Z " fill="#E7C4A2" transform="translate(52,114)"/>
<path d="M0 0 C3.3 0 6.6 0 10 0 C9.67 0.99 9.34 1.98 9 3 C6.1875 3.625 6.1875 3.625 3 4 C2.01 3.34 1.02 2.68 0 2 C0 1.34 0 0.68 0 0 Z " fill="#B79475" transform="translate(44,82)"/>
<path d="M0 0 C0 0.99 0 1.98 0 3 C-1.1446875 3.1546875 -1.1446875 3.1546875 -2.3125 3.3125 C-5.17059424 4.04364039 -6.15742885 4.76951913 -8 7 C-9 6 -9 6 -9.0625 3.4375 C-9.041875 2.633125 -9.02125 1.82875 -9 1 C-2.25 0 -2.25 0 0 0 Z " fill="#C98866" transform="translate(44,56)"/>
<path d="M0 0 C0.33 0.99 0.66 1.98 1 3 C0.34 3 -0.32 3 -1 3 C-1.33 5.64 -1.66 8.28 -2 11 C-2.99 10.67 -3.98 10.34 -5 10 C-4.56802365 5.2482602 -3.67230705 3.07999946 0 0 Z " fill="#6C8EA3" transform="translate(63,91)"/>
<path d="M0 0 C1.32 0.33 2.64 0.66 4 1 C2.9375 3.5 2.9375 3.5 1 6 C-2.6875 6.3125 -2.6875 6.3125 -6 6 C-6.33 5.34 -6.66 4.68 -7 4 C-5.02 3.67 -3.04 3.34 -1 3 C-0.67 2.01 -0.34 1.02 0 0 Z " fill="#C4805F" transform="translate(52,72)"/>
<path d="M0 0 C3.71599191 -0.20086443 4.77208445 -0.1519437 8 2 C8.99 2.33 9.98 2.66 11 3 C11 3.66 11 4.32 11 5 C7.75 5.3125 7.75 5.3125 4 5 C1.5625 2.5 1.5625 2.5 0 0 Z " fill="#6395B2" transform="translate(46,89)"/>
<path d="M0 0 C0.99 0 1.98 0 3 0 C3.33 1.98 3.66 3.96 4 6 C2.68 6.33 1.36 6.66 0 7 C-1.125 2.25 -1.125 2.25 0 0 Z " fill="#C68869" transform="translate(40,61)"/>
<path d="M0 0 C0.99 0.66 1.98 1.32 3 2 C3.1875 4.625 3.1875 4.625 3 7 C1.35 7.66 -0.3 8.32 -2 9 C-1.125 1.125 -1.125 1.125 0 0 Z " fill="#DEB085" transform="translate(70,59)"/>
<path d="M0 0 C0.66 0 1.32 0 2 0 C2.33 2.97 2.66 5.94 3 9 C1.68 8.34 0.36 7.68 -1 7 C-1.04254356 5.00045254 -1.04080783 2.99958364 -1 1 C-0.67 0.67 -0.34 0.34 0 0 Z " fill="#DEB084" transform="translate(27,59)"/>
<path d="M0 0 C1.98 0.99 1.98 0.99 4 2 C4.75 5.625 4.75 5.625 5 9 C4.01 9 3.02 9 2 9 C1.34 6.03 0.68 3.06 0 0 Z " fill="#5F91AE" transform="translate(32,93)"/>
<path d="M0 0 C2.64 0 5.28 0 8 0 C8 0.99 8 1.98 8 3 C5.36 3 2.72 3 0 3 C0 2.01 0 1.02 0 0 Z " fill="#FFFAF6" transform="translate(43,72)"/>
<path d="M0 0 C1.98 0 3.96 0 6 0 C6.33 0.99 6.66 1.98 7 3 C5.02 3.33 3.04 3.66 1 4 C0.67 2.68 0.34 1.36 0 0 Z " fill="#E8B88B" transform="translate(46,66)"/>
<path d="M0 0 C1.32 0.33 2.64 0.66 4 1 C3.67 2.65 3.34 4.3 3 6 C2.01 5.67 1.02 5.34 0 5 C0 3.35 0 1.7 0 0 Z " fill="#BF7A59" transform="translate(55,62)"/>
<path d="M0 0 C0.99 0.33 1.98 0.66 3 1 C2.67 2.32 2.34 3.64 2 5 C0.35 5.33 -1.3 5.66 -3 6 C-2.34 5.34 -1.68 4.68 -1 4 C-0.3574765 1.93125966 -0.3574765 1.93125966 0 0 Z " fill="#F9ECE4" transform="translate(59,63)"/>
</svg>
